<svg xmlns="http://www.w3.org/2000/svg" width="32" height="32" viewBox="0 0 32 32"><title>brands</title><path opacity="0.12" d="M16 6c-4.053 0-7.333 3.28-7.333 7.333s3.28 7.333 7.333 7.333 7.333-3.28 7.333-7.333-3.28-7.333-7.333-7.333zM17.147 14.48l-1.147 2.187-1.147-2.187-2.187-1.147 2.187-1.147 1.147-2.187 1.147 2.187 2.187 1.147-2.187 1.147z"></path><path opacity="0.12" d="M9.307 22.86c-1 1.593-1.993 3.193-2.993 4.787l3.32-0.28 1.2 3.107 3.4-5.447c-0.347-0.413-1.033-1.107-2.107-1.607-1.193-0.547-2.273-0.58-2.82-0.56z"></path><path opacity="0.12" d="M22.693 22.86c1 1.593 1.993 3.193 2.993 4.787l-3.32-0.28-1.2 3.107-3.4-5.447c0.347-0.413 1.033-1.107 2.107-1.607 1.193-0.547 2.273-0.58 2.82-0.56z"></path><path d="M10.693 31.96l-1.5-3.887-4.153 0.353 3.7-5.92 1.127 0.707-2.28 3.66 2.487-0.213 0.907 2.333 2.693-4.313 1.127 0.707z"></path><path d="M21.307 31.96l-4.107-6.573 1.127-0.707 2.693 4.313 0.907-2.333 2.487 0.213-2.28-3.66 1.127-0.707 3.7 5.92-4.153-0.353z"></path><path d="M16 26.553c-0.893 0-1.727-0.347-2.36-0.973l-1.333-1.333c-0.38-0.38-0.88-0.587-1.413-0.587h-1.887c-1.84 0-3.333-1.493-3.333-3.333v-1.887c0-0.533-0.207-1.040-0.587-1.413l-1.333-1.333c-1.3-1.3-1.3-3.413 0-4.713l1.333-1.333c0.38-0.38 0.587-0.88 0.587-1.413v-1.887c0-1.84 1.493-3.333 3.333-3.333h1.887c0.533 0 1.033-0.207 1.413-0.587l1.333-1.333c0.627-0.627 1.467-0.973 2.36-0.973s1.727 0.347 2.36 0.973l1.333 1.333c0.38 0.38 0.88 0.587 1.413 0.587h1.887c1.84 0 3.333 1.493 3.333 3.333v1.887c0 0.533 0.207 1.040 0.587 1.413l1.333 1.333c1.3 1.3 1.3 3.413 0 4.713l-1.333 1.333c-0.38 0.38-0.587 0.88-0.587 1.413v1.887c0 1.84-1.493 3.333-3.333 3.333h-1.887c-0.533 0-1.040 0.207-1.413 0.587l-1.333 1.333c-0.633 0.627-1.467 0.973-2.36 0.973zM9.013 4.347c-1.1 0-2 0.9-2 2v1.887c0 0.893-0.347 1.727-0.973 2.36l-1.333 1.333c-0.78 0.78-0.78 2.047 0 2.827l1.333 1.333c0.627 0.627 0.973 1.467 0.973 2.36v1.887c0 1.1 0.9 2 2 2h1.887c0.893 0 1.727 0.347 2.36 0.973l1.333 1.333c0.753 0.753 2.073 0.753 2.827 0l1.333-1.333c0.627-0.627 1.467-0.973 2.36-0.973h1.887c1.1 0 2-0.9 2-2v-1.887c0-0.893 0.347-1.727 0.973-2.36l1.333-1.333c0.78-0.78 0.78-2.047 0-2.827l-1.333-1.333c-0.627-0.627-0.973-1.467-0.973-2.36v-1.887c0-1.1-0.9-2-2-2h-1.887c-0.893 0-1.727-0.347-2.36-0.973l-1.333-1.333c-0.753-0.753-2.073-0.753-2.827 0l-1.333 1.333c-0.627 0.627-1.467 0.973-2.36 0.973h-1.887z"></path><path d="M16 21.333c-4.413 0-8-3.587-8-8s3.587-8 8-8c4.413 0 8 3.587 8 8s-3.587 8-8 8zM16 6.667c-3.673 0-6.667 2.993-6.667 6.667s2.993 6.667 6.667 6.667c3.673 0 6.667-2.993 6.667-6.667s-2.993-6.667-6.667-6.667z"></path><path d="M16 17.86l-1.56-2.967-2.967-1.56 2.967-1.56 1.56-2.967 1.56 2.967 2.967 1.56-2.967 1.56-1.56 2.967zM13.86 13.333l1.4 0.733 0.733 1.4 0.733-1.4 1.4-0.733-1.4-0.733-0.733-1.4-0.733 1.4-1.4 0.733z"></path></svg>