<svg xmlns="http://www.w3.org/2000/svg" width="32" height="32" viewBox="0 0 32 32"><title>choose-a-theme</title><path d="M28 0.667h-24c-1.473 0-2.667 1.193-2.667 2.667v25.333c0 1.473 1.193 2.667 2.667 2.667h24c1.473 0 2.667-1.193 2.667-2.667v-25.333c0-1.473-1.193-2.667-2.667-2.667zM29.333 28.667c0 0.733-0.6 1.333-1.333 1.333h-24c-0.733 0-1.333-0.6-1.333-1.333v-24h26.667v24z"></path><path d="M7.333 16.667h6.667c0.733 0 1.333-0.6 1.333-1.333v-6.667c0-0.733-0.6-1.333-1.333-1.333h-6.667c-0.733 0-1.333 0.6-1.333 1.333v6.667c0 0.733 0.6 1.333 1.333 1.333zM6.933 8.667c0-0.22 0.18-0.4 0.4-0.4h6.667c0.22 0 0.4 0.18 0.4 0.4v6.667c0 0.22-0.18 0.4-0.4 0.4h-6.667c-0.22 0-0.4-0.18-0.4-0.4v-6.667z"></path><path d="M7.167 27.387h6.667c0.733 0 1.333-0.6 1.333-1.333v-6.667c0-0.733-0.6-1.333-1.333-1.333h-6.667c-0.733 0-1.333 0.6-1.333 1.333v6.667c0 0.74 0.6 1.333 1.333 1.333zM6.773 19.387c0-0.22 0.18-0.4 0.4-0.4h6.667c0.22 0 0.4 0.18 0.4 0.4v6.667c0 0.22-0.18 0.4-0.4 0.4h-6.667c-0.22 0-0.4-0.18-0.4-0.4v-6.667z"></path><path d="M18 27.333h6.667c0.733 0 1.333-0.6 1.333-1.333v-6.667c0-0.733-0.6-1.333-1.333-1.333h-6.667c-0.733 0-1.333 0.6-1.333 1.333v6.667c0 0.733 0.6 1.333 1.333 1.333zM17.6 19.333c0-0.22 0.18-0.4 0.4-0.4h6.667c0.22 0 0.4 0.18 0.4 0.4v6.667c0 0.22-0.18 0.4-0.4 0.4h-6.667c-0.22 0-0.4-0.18-0.4-0.4v-6.667z"></path><path d="M18 16.667h6.667c0.733 0 1.333-0.6 1.333-1.333v-6.667c0-0.733-0.6-1.333-1.333-1.333h-6.667c-0.733 0-1.333 0.6-1.333 1.333v6.667c0 0.733 0.6 1.333 1.333 1.333zM19.567 11.267l1.193 1.193 2.333-2.333 0.707 0.707-3.040 3.040-1.9-1.9 0.707-0.707z"></path></svg>