<svg xmlns="http://www.w3.org/2000/svg" width="32" height="32" viewBox="0 0 32 32"><title>cs-grph</title><path fill="#000" d="M29.086 17.531c-0.036-0.608-0.087-1.216-0.299-1.801-0.334-0.928-0.901-1.621-1.849-1.964-0.331-0.12-0.656-0.252-0.956-0.439-0.439-0.273-0.715-0.65-0.78-1.172-0.016-0.134-0.020-0.254 0.131-0.306 0.204-0.071 0.155 0.131 0.19 0.205 0.265 0.566 0.679 0.938 1.309 1.022 0.634 0.085 1.101-0.207 1.461-0.701 0.404-0.554 0.666-1.172 0.747-1.851 0.175-1.466-0.13-2.865-0.659-4.224-0.289-0.74-0.746-1.353-1.398-1.825-0.349-0.253-0.706-0.384-1.131-0.272-0.086 0.022-0.149 0.050-0.189-0.072-0.148-0.456-0.426-0.718-0.878-0.84-0.021 0-0.091-0.031-0.113-0.031-0.085-0.031-0.245-0.045-0.407-0.034-0.061 0.007-0.196 0.040-0.281 0.067-0.365 0.124-0.736 0.231-1.093 0.376-0.819 0.333-1.561 0.78-2.047 1.549-0.343 0.54-0.407 1.11-0.025 1.66 0.115 0.164 0.133 0.287 0.078 0.475-0.295 1.005-0.436 2.026-0.225 3.069 0.045 0.225-0.079 0.203-0.221 0.206-2.345 0.060-4.652 0.065-6.997 0.125-2.553 0.065-5.149 0.036-7.701 0.088-0.317 0.006-0.429 0.131-0.428 0.424 0.003 0.436 0.003 0.873-0.003 1.309-0.055 4.112-0.027 8.379-0.034 12.491-0.001 0.671 0.014 0.683 0.674 0.66 1.649-0.055 3.297-0.108 4.946-0.161 1.317-0.043 2.717-0.006 4.034-0.050 2.479-0.081 4.861-0.104 7.34-0.186 0.83-0.027 1.64-0.079 2.469-0.11 0.275-0.010 0.348-0.116 0.251-0.379-0.070-0.191-0.016-0.489-0.016-0.699 0.13 0.046 0.226 0.080 0.324 0.115 1.639 0.58 2.961-0.050 3.53-1.686 0.133-0.383 0.221-0.777 0.256-1.181 0.113-1.286 0.066-2.571-0.011-3.855zM21.31 7.508c0.027-0.1 0.076-0.126 0.183-0.085 0.886 0.349 1.659 0.181 2.325-0.571 0.234 0.62 0.656 1 1.17 1.303 0.712 0.421 0.779 0.579 0.63 1.391-0.1 0.549-0.253 1.091-0.254 1.655 0 0.098-0.040 0.154-0.122 0.193-0.212 0.099-0.424 0.197-0.696 0.325 0-0.318 0-0.582 0-0.848 0.001-0.245-0.099-0.342-0.363-0.334-0.941 0.031-1.884 0.037-2.826 0.059-0.135 0.002-0.209-0.027-0.239-0.171-0.214-0.992-0.073-1.959 0.192-2.916zM8.815 12.125c0.17-0.010 0.275 0.064 0.29 0.242-0.002 0.169-0.082 0.276-0.256 0.283-0.172 0.006-0.268-0.090-0.271-0.264-0.001-0.158 0.076-0.252 0.238-0.261zM7.888 12.19c0.156 0.015 0.275 0.081 0.276 0.264 0.001 0.164-0.098 0.249-0.251 0.258-0.174 0.009-0.274-0.084-0.274-0.261 0-0.158 0.076-0.252 0.249-0.26zM6.92 12.24c0.149-0.006 0.258 0.059 0.271 0.248-0.024 0.116-0.077 0.226-0.249 0.226-0.166 0-0.253-0.092-0.258-0.241-0.004-0.141 0.096-0.226 0.235-0.232zM24.499 24.751c-0.049 0.055-0.116 0.030-0.175 0.032-1.192 0.043-2.394 0.067-3.586 0.109-2.177 0.075-4.314 0.056-6.491 0.128-1.659 0.054-3.319 0.099-4.979 0.15-1.079 0.032-2.158 0.064-3.236 0.106-0.229 0.009-0.316-0.032-0.315-0.294 0.018-3.655 0.016-7.464 0.018-11.119 0-0.223 0.044-0.297 0.287-0.303 2.864-0.061 5.724-0.071 8.588-0.145 2.334-0.059 4.679-0.031 7.014-0.091 0.777-0.020 1.556-0.036 2.334-0.065 0.176-0.006 0.223 0.045 0.227 0.22 0.029 1.068 0.073 2.136 0.109 3.204 0.043 1.262 0.084 2.525 0.126 3.844-0.241-0.179-0.451-0.323-0.721-0.324-0.165-0.001-0.114-0.155-0.119-0.24-0.027-0.529-0.030-1.059-0.066-1.586-0.032-0.475-0.074-0.495-0.549-0.5-1.1-0.011-2.2 0.082-3.301 0.024-0.226-0.012-0.29 0.124-0.281 0.316 0.019 0.425 0.038 0.85 0.064 1.275 0.011 0.177-0.011 0.299-0.238 0.294-0.141-0.004-0.28 0.061-0.265 0.238 0.014 0.16 0.152 0.195 0.28 0.181 0.231-0.025 0.28 0.087 0.284 0.29 0.008 0.394 0.049 0.788 0.054 1.181 0.004 0.274 0.133 0.376 0.386 0.36 0.508-0.031 1.015-0.056 1.521-0.102 0.174-0.016 0.277 0.012 0.314 0.192 0.061 0.302 0.301 0.471 0.503 0.669 0.703 0.349 1.405 0.696 2.106 1.047 0.121 0.058 0.195 0.809 0.109 0.909zM22.756 19.782c-0.281-0.085-0.289 0.234-0.371 0.404-0.165 0.344-0.17 0.352-0.53 0.191-0.616-0.276-1.076-0.129-1.311 0.425-0.066 0.155-0.14 0.34 0.065 0.431 0.192 0.086 0.265-0.078 0.331-0.229 0.093-0.212 0.229-0.389 0.497-0.31 0.199 0.058 0.354 0.082 0.274 0.424-0.085 0.365-0.259 0.398-0.536 0.41-0.331 0.015-0.663 0.036-0.994 0.064-0.144 0.011-0.201-0.029-0.207-0.185-0.044-0.933-0.094-1.865-0.151-2.796-0.011-0.183 0.026-0.262 0.23-0.258 0.466 0.012 0.934-0.050 1.401-0.050 0-0.017 0 0.017 0 0 0.468 0 0.934 0.005 1.401-0.003 0.161-0.003 0.241 0.025 0.244 0.218 0.009 0.622 0.040 1.244 0.063 1.866 0.003 0.070 0.038 0.165-0.043 0.196-0.095 0.038-0.156-0.073-0.241-0.101-0.086-0.029-0.090-0.095-0.063-0.176 0.063-0.185 0.24-0.431-0.059-0.521zM24.595 13.544c-0.011-0.144-0.006-0.311-0.006-0.455-0.014 0 0.014 0 0 0 0-0.249 0.003-0.496-0.001-0.745-0.001-0.082-0.027-0.179 0.087-0.197 0.148-0.025 0.098 0.1 0.106 0.168 0.055 0.418 0.244 0.768 0.543 1.054 0.114 0.11 0.109 0.18-0.001 0.273-0.047 0.040-0.085 0.092-0.137 0.126-0.161 0.102-0.324 0.311-0.508 0.22-0.128-0.063-0.070-0.283-0.082-0.443zM28.41 22.435c-0.293 0.846-0.806 1.464-1.761 1.581-0.409 0.050-1.030-0.081-1.47-0.317 0.381-0.301 0.445-0.734 0.475-1.172 0.011-0.176 0.030-0.246 0.242-0.221 0.461 0.054 0.789-0.19 0.956-0.666 0.209-0.594 0.176-1.209 0.113-1.816-0.082-0.773-0.205-1.541-0.311-2.313-0.008-0.051-0.027-0.1-0.035-0.151-0.024-0.165-0.096-0.286-0.282-0.245-0.175 0.038-0.174 0.183-0.152 0.324 0.086 0.564 0.183 1.125 0.259 1.69 0.094 0.699 0.177 1.401 0.058 2.106-0.045 0.266-0.109 0.543-0.422 0.626-0.227 0.061-0.791-0.211-0.949-0.384-0.251-0.276-0.261-0.6-0.273-0.939-0.058-1.845-0.115-3.69-0.19-5.534-0.014-0.329 0.008-0.557 0.398-0.649 0.258-0.060 0.466-0.266 0.64-0.476 0.078-0.095 0.135-0.115 0.255-0.056 0.315 0.152 0.642 0.281 0.964 0.422 0.966 0.425 1.436 1.204 1.554 2.219 0.087 0.759 0.185 1.517 0.22 2.279 0.056 1.24 0.128 2.489-0.286 3.692z"></path><path fill="#000" d="M21.038 26.905c0.008-0.256-0.094-0.328-0.365-0.325-0.789 0.009-1.578 0.016-2.366 0.019-1.059 0.003-2.117 0.035-3.178 0.035 0 0.011 0-0.011 0 0-0.352 0-0.706 0-1.059 0-1.35 0-2.7-0.004-4.049 0.001-0.736 0.003-0.734 0.010-0.744 0.61-0.006 0.4-0.023 0.799-0.026 1.199-0.002 0.319 0.091 0.395 0.414 0.386 2.166-0.061 4.332-0.124 6.5-0.179 1.555-0.039 3.111-0.066 4.666-0.1 0.231-0.005 0.339-0.082 0.288-0.297-0.102-0.446-0.095-0.9-0.081-1.349zM16.844 26.997c0.021-0.009 0.486-0.012 0.488-0.005 0.010 0.089-0.337 0.696-0.446 0.817 0.026-0.145-0.174-0.76-0.041-0.813zM17.313 28.259c-0.154-0.105-0.034-0.23 0.024-0.341 0.079-0.15 0.165-0.296 0.247-0.445 0.299-0.538 0.299-0.538 1.039-0.497-0.212 0.396-0.42 0.786-0.633 1.176-0.040 0.075-0.578 0.176-0.677 0.108zM18.986 28.216c-0.172 0.003-0.346 0.001-0.532 0.001 0.207-0.407 0.411-0.801 0.608-1.198 0.034-0.070 0.093-0.056 0.149-0.056 0.204-0.003 0.409-0.001 0.636-0.001-0.204 0.433-0.54 0.782-0.704 1.203-0.026 0.069-0.098 0.051-0.156 0.051zM20.43 28.189c-0.259 0-0.517 0-0.828 0 0.249-0.406 0.485-0.786 0.715-1.169 0.045-0.075 0.116-0.058 0.185-0.058 0.11-0.001 0.098 0.069 0.099 0.129 0.008 0.313 0.005 0.624 0.025 0.936 0.010 0.134-0.066 0.161-0.196 0.161z"></path><path fill="#020202" d="M4.949 26.003c-0.129-0.054-0.221 0.012-0.296 0.105-0.379 0.462-0.757 0.927-1.133 1.394-0.092 0.115-0.19 0.259-0.041 0.379 0.155 0.124 0.288 0.017 0.394-0.114 0.359-0.44 0.718-0.88 1.076-1.32 0.060-0.073 0.116-0.146 0.122-0.245-0.014-0.082-0.035-0.161-0.122-0.199z"></path><path fill="#020202" d="M5.824 26.394c-0.175-0.030-0.239 0.104-0.265 0.241-0.077 0.406-0.146 0.815-0.215 1.223-0.022 0.137 0.016 0.259 0.168 0.288 0.154 0.029 0.234-0.084 0.26-0.211 0.082-0.405 0.15-0.814 0.22-1.201 0.003-0.159 0.011-0.309-0.168-0.339z"></path><path fill="#030303" d="M3.716 25.741c0.237 0 0.475 0.003 0.711-0.001 0.12-0.003 0.194-0.073 0.2-0.192 0.006-0.121-0.061-0.195-0.184-0.203-0.464-0.029-0.928-0.054-1.391-0.021-0.123 0.009-0.22 0.075-0.215 0.216 0.005 0.139 0.101 0.199 0.228 0.203 0.216 0.006 0.434 0.001 0.65 0.001 0.001-0.001 0.001-0.003 0.001-0.003z"></path><path fill="#010101" d="M16.349 19.964c-1.047 0.010-1.844-0.076-2.891-0.035-0.305 0.012-0.456 0.201-0.457 0.515-0.002 0.456 0.005 0.914-0.063 1.552 0 0.284-0.005 0.751 0.001 1.218 0.005 0.356 0.127 0.46 0.485 0.435 0.435-0.031 0.869-0.065 1.304-0.096 0.694-0.049 1.136 0.029 1.83-0.020 0.183-0.012 0.314-0.064 0.308-0.297-0.025-0.924-0.039-1.846-0.054-2.77-0.009-0.473-0.008-0.505-0.462-0.501zM16.199 23.125c-0.941 0.061-1.631 0.006-2.571 0.081-0.214 0.017-0.26-0.066-0.252-0.264 0.015-0.383 0.005-0.766 0.005-1.15 0.019 0-0.019 0 0 0 0-0.404 0.063-0.809 0.055-1.212-0.002-0.156 0.045-0.214 0.21-0.219 0.932-0.031 1.614 0.054 2.545 0.009 0.172-0.009 0.206 0.060 0.207 0.214 0.003 0.767 0.010 1.534 0.026 2.301 0.004 0.171-0.051 0.229-0.225 0.24z"></path><path fill="#010101" d="M10.895 20.005c-0.435 0-0.871 0-1.306 0 0 0.012 0.015-0.010 0.015 0.003-0.466 0-1.072-0.005-1.539-0.011-0.226-0.003-0.341 0.080-0.354 0.323-0.058 1.045-0.004 2.131-0.069 3.176-0.021 0.345 0.032 0.4 0.376 0.379 0.879-0.052 1.758-0.106 2.637-0.159 0.389-0.023 0.457-0.094 0.479-0.49 0.049-0.931 0.095-1.863 0.152-2.793 0.024-0.395 0.004-0.427-0.393-0.427zM10.706 23.174c-0.001 0.023-0.036 0.044-0.055 0.066-0.535 0.119-1.082 0.082-1.624 0.139-0.225 0.024-0.456 0.009-0.679 0.046-0.242 0.040-0.275-0.060-0.26-0.266 0.055-0.793-0.014-1.63 0.012-2.424 0.009-0.28 0.124-0.335 0.357-0.29 0.713-0.104 1.553 0.017 2.266-0.004 0.106-0.004 0.144 0.051 0.137 0.156-0.053 0.859-0.102 1.718-0.156 2.576z"></path><path fill="#000" d="M19.573 16.201c0.149-0.003 0.315-0.001 0.315-0.209 0-0.209-0.175-0.205-0.317-0.205-0.497 0.002-0.995 0.015-1.492 0.023-1.628 0.023-3.254 0.044-4.881 0.066 0 0.019 0-0.019 0 0-0.445-0.011-0.891 0.025-1.336 0.025-0.373 0-0.746 0.021-1.119 0.036-0.129 0.005-0.221 0.060-0.223 0.205 0 0.149 0.101 0.194 0.226 0.199 0.207 0.009 0.415 0.015 0.623 0.012 1.399-0.023 2.797-0.045 4.196-0.071 1.336-0.024 2.672-0.054 4.009-0.081z"></path><path fill="#010101" d="M16.445 17.034c-0.901-0.004-1.803-0.006-2.703 0.001-0.145 0.001-0.348-0.008-0.348 0.216-0.001 0.247 0.21 0.214 0.367 0.221 0.6 0.026 1.203-0.017 1.803 0.005 0.001-0.021-0.001 0.021 0 0 0.3-0.008 0.6-0.015 0.9-0.025 0.144-0.005 0.288-0.038 0.279-0.216-0.010-0.177-0.16-0.201-0.299-0.203z"></path><path fill="#010101" d="M8.092 14.876c0.010-0.268-0.211-0.475-0.516-0.484-0.291-0.009-0.57 0.242-0.585 0.526-0.015 0.29 0.215 0.534 0.516 0.544 0.319 0.011 0.574-0.244 0.585-0.586z"></path><path fill="#0d0d0d" d="M19.223 23c-0.226-0.027-0.455-0.041-0.679 0.021-0.089 0.025-0.136 0.098-0.136 0.189 0 0.104 0.052 0.183 0.157 0.204 0.090 0.019 0.185 0.017 0.24 0.021 0.163-0.016 0.288-0.017 0.409-0.045 0.099-0.023 0.155-0.102 0.151-0.209-0.005-0.091-0.054-0.17-0.142-0.181z"></path><path fill="#0e0e0e" d="M18.649 20.551c-0.012-0.185-0.015-0.371-0.021-0.556-0.137-0.16-0.315-0.2-0.367 0.026-0.061 0.27-0.105 0.569 0.060 0.836 0.247 0.047 0.344-0.065 0.329-0.306z"></path><path fill="#131313" d="M21.71 23.090c0.031 0.148 0.171 0.108 0.282 0.095 0.235-0.025 0.284-0.184 0.289-0.378-0.105 0.096-0.249 0.051-0.367 0.096-0.093 0.036-0.231 0.058-0.204 0.186z"></path><path fill="#131313" d="M22.282 22.8c0 0.003 0 0.005 0 0.008 0.003-0.003 0.005-0.004 0.008-0.006 0 0-0.001-0.001-0.001-0.001-0.003 0-0.004 0-0.006 0z"></path><path fill="#131313" d="M22.29 22.801c-0.003 0.003-0.005 0.004-0.008 0.006-0.005 0.192-0.054 0.352-0.289 0.378-0.113 0.012-0.251 0.052-0.282-0.095-0.027-0.129 0.11-0.15 0.204-0.186 0.119-0.045 0.262 0 0.367-0.096 0-0.003 0-0.005 0-0.008-0.171 0.017-0.346 0.020-0.512 0.060-0.181 0.044-0.251 0.258-0.121 0.354 0.204 0.15 0.427 0.060 0.617-0.031 0.196-0.093 0.111-0.247 0.024-0.381z"></path><path fill="#0f0f0f" d="M18.304 21.392c-0.004 0.133 0.019 0.266 0.029 0.4 0.284 0.099 0.361 0.054 0.37-0.234 0.004-0.124-0.012-0.249-0.019-0.372-0.282-0.149-0.372-0.104-0.38 0.206z"></path><path fill="#161616" d="M18.571 22.788c0.157 0.014 0.195-0.124 0.201-0.286-0.043-0.136-0.023-0.35-0.26-0.376-0.156-0.017-0.229 0.095-0.211 0.239 0.021 0.179 0.020 0.402 0.27 0.424z"></path><path fill="#151515" d="M20.959 22.898c-0.166 0.001-0.358 0.001-0.369 0.231-0.009 0.171 0.124 0.219 0.306 0.216 0.13-0.056 0.389 0.016 0.39-0.259 0.001-0.2-0.185-0.19-0.328-0.189z"></path><path fill="#131313" d="M19.986 22.96c-0.157 0.003-0.369-0.032-0.363 0.214 0.005 0.22 0.2 0.19 0.369 0.203 0.137-0.020 0.358 0.036 0.363-0.203 0.004-0.234-0.207-0.216-0.369-0.214z"></path><path fill="#060606" d="M21.817 14.639c0.15 0.005 0.188-0.101 0.212-0.223-0.027-0.129-0.079-0.235-0.24-0.226-0.129 0.006-0.184 0.088-0.188 0.204-0.004 0.143 0.059 0.239 0.215 0.245z"></path><path fill="#141414" d="M22.808 14.592c0.135 0.002 0.204-0.078 0.224-0.206-0.015-0.137-0.096-0.201-0.227-0.196-0.117 0.004-0.196 0.070-0.203 0.189-0.009 0.139 0.073 0.211 0.206 0.214z"></path><path fill="#1b1b1b" d="M24.186 9.485c0.122 0.006 0.191-0.055 0.204-0.179-0.004-0.123-0.070-0.2-0.189-0.199-0.117 0.001-0.191 0.079-0.189 0.199 0.001 0.105 0.065 0.172 0.174 0.179z"></path><path fill="#1b1b1b" d="M22.456 8.898c0.122-0.016 0.184-0.090 0.179-0.21-0.004-0.107-0.067-0.171-0.179-0.172-0.122-0.001-0.2 0.064-0.199 0.186 0.001 0.12 0.079 0.185 0.199 0.196z"></path><path fill="#090909" d="M20.795 18.817c-0.171-0.019-0.235 0.098-0.25 0.236-0.008 0.152 0.032 0.27 0.189 0.282 0.164 0.014 0.249-0.086 0.255-0.245 0.005-0.135-0.041-0.258-0.194-0.274z"></path><path fill="#050505" d="M10.605 21.777c0.008-0.134 0.014-0.141-0.065-0.235-0.027-0.032-0.080-0.078-0.14-0.049-0.125 0.091-0.162 0.236-0.225 0.365-0.21 0.431-0.259 0.456-0.711 0.348-0.387-0.093-0.75 0.032-0.965 0.334-0.079 0.109-0.129 0.229-0.016 0.335 0.111 0.105 0.24 0.070 0.328-0.038 0.194-0.238 0.418-0.245 0.696-0.171 0.457 0.121 0.72-0.009 0.957-0.419 0.063-0.106 0.088-0.175 0.124-0.321-0.001-0.003 0.018-0.146 0.018-0.149z"></path><path fill="#050505" d="M13.839 22.082c-0.079 0.109-0.089 0.111-0.072 0.233 0.005 0.041 0.026 0.109 0.091 0.117 0.154-0.009 0.264-0.111 0.386-0.186 0.409-0.25 0.463-0.245 0.787 0.090 0.277 0.286 0.65 0.376 0.994 0.238 0.125-0.050 0.231-0.124 0.194-0.274-0.038-0.149-0.165-0.189-0.296-0.145-0.29 0.096-0.484-0.019-0.679-0.231-0.32-0.348-0.611-0.38-1.033-0.163-0.11 0.056-0.168 0.1-0.277 0.205 0 0.003-0.092 0.113-0.095 0.116z"></path><path fill="#272727" d="M8.955 21.379c0.136 0.003 0.209-0.071 0.214-0.204-0.014-0.144-0.098-0.21-0.227-0.212-0.134-0.001-0.221 0.067-0.213 0.207 0.009 0.134 0.095 0.206 0.226 0.209z"></path></svg>