<svg xmlns="http://www.w3.org/2000/svg" width="32" height="32" viewBox="0 0 32 32"><title>contact-fv4</title><path d="M16 1c-8.28 0-15 6.72-15 15s6.72 15 15 15 15-6.72 15-15c0-8.28-6.72-15-15-15zM16 29c-7.17 0-13-5.83-13-13s5.83-13 13-13 13 5.83 13 13-5.83 13-13 13z"></path><path d="M16 8c-4.41 0-8 3.59-8 8s3.59 8 8 8h1v-2h-1c-3.31 0-6-2.69-6-6s2.69-6 6-6 6 2.69 6 6v1.5c0 0.55-0.45 1-1 1s-1-0.45-1-1v-4.75h-1.69c-0.65-0.47-1.45-0.75-2.31-0.75-2.21 0-4 1.79-4 4s1.79 4 4 4c0.94 0 1.8-0.34 2.48-0.89 0.53 0.83 1.46 1.39 2.52 1.39 1.65 0 3-1.35 3-3v-1.5c0-4.41-3.59-8-8-8zM16 18c-1.1 0-2-0.9-2-2s0.9-2 2-2c1.1 0 2 0.9 2 2s-0.9 2-2 2z"></path></svg>