<svg xmlns="http://www.w3.org/2000/svg" width="32" height="32" viewBox="0 0 32 32"><title>dailydeals</title><path opacity="0.12" d="M16 5.333c-5.893 0-10.667 4.773-10.667 10.667s4.773 10.667 10.667 10.667 10.667-4.773 10.667-10.667c0-5.893-4.773-10.667-10.667-10.667zM12.333 14.667c-1.107 0-2-0.893-2-2s0.893-2 2-2 2 0.893 2 2-0.893 2-2 2zM19.667 21.333c-1.107 0-2-0.893-2-2s0.893-2 2-2 2 0.893 2 2-0.893 2-2 2z"></path><path d="M16 31.333c-0.587 0-1.18-0.153-1.707-0.453l-1.493-0.86c-0.313-0.18-0.673-0.28-1.040-0.28h-1.727c-1.213 0-2.347-0.653-2.953-1.707l-0.86-1.493c-0.18-0.313-0.447-0.58-0.76-0.76l-1.493-0.86c-1.053-0.607-1.707-1.74-1.707-2.953v-1.727c0-0.367-0.093-0.72-0.28-1.040l-0.86-1.493c-0.607-1.053-0.607-2.36 0-3.413l0.86-1.493c0.18-0.313 0.28-0.673 0.28-1.040v-1.727c0-1.213 0.653-2.347 1.707-2.953l1.493-0.86c0.313-0.18 0.58-0.447 0.76-0.76l0.86-1.493c0.607-1.053 1.74-1.707 2.953-1.707h1.727c0.367 0 0.72-0.093 1.040-0.28l1.493-0.86c1.053-0.607 2.36-0.607 3.413 0l1.493 0.86c0.313 0.18 0.673 0.28 1.040 0.28h1.727c1.213 0 2.347 0.653 2.953 1.707l0.86 1.493c0.18 0.313 0.447 0.58 0.76 0.76l1.493 0.86c1.053 0.607 1.707 1.74 1.707 2.953v1.727c0 0.367 0.093 0.72 0.28 1.040l0.86 1.493c0.607 1.053 0.607 2.36 0 3.413l-0.86 1.493c-0.18 0.313-0.28 0.673-0.28 1.040v1.727c0 1.213-0.653 2.347-1.707 2.953l-1.493 0.86c-0.313 0.18-0.58 0.447-0.76 0.76l-0.86 1.493c-0.607 1.053-1.74 1.707-2.953 1.707h-1.727c-0.367 0-0.72 0.093-1.040 0.28l-1.493 0.86c-0.527 0.3-1.12 0.453-1.707 0.453zM10.040 3.6c-0.74 0-1.427 0.4-1.8 1.040l-0.86 1.493c-0.3 0.52-0.733 0.947-1.247 1.247l-1.493 0.86c-0.64 0.367-1.040 1.060-1.040 1.8v1.727c0 0.6-0.16 1.187-0.46 1.707l-0.86 1.493c-0.367 0.64-0.367 1.433 0 2.080l0.86 1.493c0.3 0.52 0.46 1.107 0.46 1.707v1.727c0 0.74 0.4 1.427 1.040 1.8l1.493 0.86c0.52 0.3 0.947 0.733 1.247 1.247l0.86 1.493c0.367 0.64 1.060 1.040 1.8 1.040h1.727c0.6 0 1.187 0.16 1.707 0.46l1.493 0.86c0.64 0.367 1.433 0.367 2.080 0l1.493-0.86c0.52-0.3 1.107-0.46 1.707-0.46h1.727c0.74 0 1.427-0.4 1.8-1.040l0.86-1.493c0.3-0.52 0.733-0.947 1.247-1.247l1.493-0.86c0.64-0.367 1.040-1.060 1.040-1.8v-1.727c0-0.6 0.16-1.187 0.46-1.707l0.86-1.493c0.373-0.64 0.373-1.433 0-2.080l-0.86-1.493c-0.3-0.52-0.46-1.107-0.46-1.707v-1.727c0-0.74-0.4-1.427-1.040-1.8l-1.493-0.86c-0.52-0.3-0.947-0.733-1.247-1.247l-0.86-1.493c-0.367-0.64-1.060-1.040-1.8-1.040h-1.727c-0.6 0-1.187-0.16-1.707-0.46l-1.493-0.86c-0.64-0.373-1.44-0.367-2.080 0l-1.5 0.86c-0.52 0.3-1.107 0.46-1.707 0.46h-1.72z"></path><path d="M16 27.333c-6.247 0-11.333-5.087-11.333-11.333s5.087-11.333 11.333-11.333 11.333 5.087 11.333 11.333-5.087 11.333-11.333 11.333zM16 6c-5.513 0-10 4.487-10 10s4.487 10 10 10c5.513 0 10-4.487 10-10s-4.487-10-10-10z"></path><path d="M10.862 20.195l9.334-9.334 0.943 0.943-9.334 9.334-0.943-0.943z"></path><path d="M12.333 15.22c-1.407 0-2.553-1.147-2.553-2.553s1.147-2.553 2.553-2.553 2.553 1.147 2.553 2.553-1.147 2.553-2.553 2.553zM12.333 11.22c-0.793 0-1.447 0.647-1.447 1.447s0.647 1.447 1.447 1.447 1.447-0.647 1.447-1.447-0.653-1.447-1.447-1.447z"></path><path d="M19.667 21.887c-1.407 0-2.553-1.147-2.553-2.553s1.147-2.553 2.553-2.553 2.553 1.147 2.553 2.553-1.147 2.553-2.553 2.553zM19.667 17.887c-0.793 0-1.447 0.647-1.447 1.447s0.647 1.447 1.447 1.447 1.447-0.647 1.447-1.447-0.653-1.447-1.447-1.447z"></path></svg>