<svg xmlns="http://www.w3.org/2000/svg" width="32" height="32" viewBox="0 0 32 32"><title>help-fv4</title><path d="M16 1c-8.28 0-15 6.72-15 15s6.72 15 15 15c8.28 0 15-6.72 15-15s-6.72-15-15-15zM19.45 20.9c-0.27 0.19-0.55 0.35-0.84 0.49-0.79 0.39-1.67 0.61-2.61 0.61s-1.82-0.22-2.61-0.61c-0.29-0.14-0.57-0.31-0.84-0.49-0.56-0.4-1.050-0.89-1.45-1.45-0.19-0.26-0.35-0.55-0.49-0.84-0.39-0.79-0.61-1.67-0.61-2.61s0.22-1.82 0.61-2.61c0.14-0.29 0.31-0.57 0.49-0.84 0.4-0.56 0.89-1.050 1.45-1.45 0.26-0.19 0.55-0.35 0.84-0.49 0.79-0.39 1.67-0.61 2.61-0.61s1.82 0.22 2.61 0.61c0.29 0.14 0.58 0.31 0.84 0.49 0.56 0.4 1.050 0.89 1.45 1.45 0.19 0.27 0.35 0.55 0.49 0.84 0.39 0.79 0.61 1.67 0.61 2.61s-0.22 1.82-0.61 2.61c-0.14 0.29-0.31 0.58-0.49 0.84-0.4 0.56-0.89 1.050-1.45 1.45zM23.44 18.91c0.36-0.9 0.56-1.88 0.56-2.91s-0.2-2.010-0.56-2.91l4.030-3.18c0.98 1.81 1.53 3.89 1.53 6.090s-0.55 4.28-1.52 6.1l-4.040-3.19zM26.39 8.22l-3.92 3.090c-0.5-0.68-1.090-1.28-1.78-1.78l3.090-3.92c0.99 0.74 1.87 1.62 2.61 2.61zM16 3c2.2 0 4.28 0.55 6.090 1.52l-3.18 4.030c-0.9-0.35-1.88-0.55-2.91-0.55s-2.010 0.2-2.91 0.56l-3.18-4.040c1.81-0.97 3.89-1.52 6.090-1.52zM8.22 5.61l3.090 3.92c-0.68 0.5-1.28 1.090-1.78 1.78l-3.92-3.090c0.74-0.99 1.62-1.87 2.61-2.61zM4.52 9.9l4.030 3.18c-0.35 0.91-0.55 1.89-0.55 2.92s0.2 2.010 0.56 2.91l-4.040 3.19c-0.97-1.82-1.52-3.9-1.52-6.1s0.55-4.28 1.52-6.1zM5.61 23.78l3.92-3.090c0.5 0.68 1.090 1.28 1.78 1.78l-3.090 3.92c-0.99-0.74-1.87-1.62-2.61-2.61zM16 29c-2.2 0-4.28-0.55-6.090-1.52l3.18-4.030c0.9 0.35 1.88 0.55 2.91 0.55s2.010-0.2 2.91-0.56l3.18 4.030c-1.81 0.98-3.89 1.53-6.090 1.53zM23.78 26.39l-3.090-3.92c0.68-0.5 1.28-1.090 1.78-1.78l3.92 3.090c-0.74 0.99-1.62 1.87-2.61 2.61z"></path></svg>