<svg xmlns="http://www.w3.org/2000/svg" width="32" height="32" viewBox="0 0 32 32"><title>Make-service</title><path d="M31.31 6.47l-2.79-0.9 0.74-2.68c0.15-0.53-0.16-1.080-0.7-1.23-0.53-0.15-1.080 0.16-1.23 0.7l-0.89 3.21-3.68 2.13c-2.25-3.26-6.010-5.4-10.26-5.4-6.89 0-12.5 5.61-12.5 12.5 0 3.94 1.83 7.45 4.69 9.74l-2.55 4.24c-0.28 0.47-0.13 1.090 0.34 1.37 0.17 0.1 0.34 0.15 0.52 0.15 0.34 0 0.67-0.17 0.86-0.49l2.49-4.15c1.82 1.030 3.92 1.63 6.15 1.63s4.34-0.6 6.15-1.63l2.49 4.15c0.19 0.31 0.52 0.49 0.86 0.49 0.18 0 0.35-0.050 0.51-0.14 0.47-0.28 0.63-0.9 0.34-1.37l-2.55-4.24c2.87-2.3 4.7-5.81 4.7-9.75 0-1.93-0.45-3.75-1.23-5.38l3.65-2.11 3.28 1.060c0.53 0.17 1.090-0.12 1.26-0.64 0.16-0.52-0.13-1.090-0.65-1.26zM23 14.8c0 5.79-4.71 10.5-10.5 10.5s-10.5-4.71-10.5-10.5c0-5.79 4.71-10.5 10.5-10.5 3.51 0 6.62 1.74 8.53 4.39l-2.18 1.26c-1.46-1.91-3.76-3.15-6.35-3.15-4.41 0-8 3.59-8 8s3.59 8 8 8 8-3.59 8-8c0-1.11-0.23-2.16-0.64-3.12l2.17-1.25c0.62 1.33 0.97 2.81 0.97 4.37zM14.42 12.51c-0.52-0.44-1.18-0.71-1.92-0.71-1.65 0-3 1.35-3 3s1.35 3 3 3 3-1.35 3-3c0-0.2-0.020-0.39-0.060-0.57l2.67-1.54c0.25 0.66 0.39 1.37 0.39 2.11 0 3.31-2.69 6-6 6s-6-2.69-6-6 2.69-6 6-6c1.85 0 3.5 0.84 4.61 2.16l-2.69 1.55z"></path></svg>