<svg xmlns="http://www.w3.org/2000/svg" width="32" height="32" viewBox="0 0 32 32"><title>pay-by-card</title><path d="M12.85 20.25l-3.6-3.6c-0.814-0.814-1.318-1.939-1.318-3.182 0-2.485 2.015-4.5 4.5-4.5 0.563 0 1.102 0.103 1.599 0.292l-0.031-0.010v-8.25h-7c-0.552 0-1 0.448-1 1v0 19c0 0.552 0.448 1 1 1v0h5.9c-0.046-0.337-0.072-0.727-0.072-1.124 0-0.22 0.008-0.439 0.024-0.655l-0.002 0.029zM20 2c0-0.552-0.448-1-1-1v0h-3v9.65l4 4z"></path><path d="M24.35 14.35l-2.35-2.4v6.45l-0.6 0.5-7.2-7.15c-0.461-0.61-1.185-1-2-1-1.381 0-2.5 1.119-2.5 2.5 0 0.815 0.39 1.539 0.994 1.995l0.006 0.005 4.3 4.3c-0.12 0.465-0.189 0.999-0.189 1.55 0 1.058 0.255 2.056 0.706 2.937l-0.017-0.036h-4.35c0.252 1.42 0.777 2.682 1.522 3.785l-0.022-0.035c1.4 2.25 1.35 2.9 1.35 3.25h12s0.050-6.7 0.050-11c-0.050-2.9-0.45-4.45-1.7-5.65z"></path></svg>