<svg xmlns="http://www.w3.org/2000/svg" width="32" height="32" viewBox="0 0 32 32"><title>return</title><path opacity="0.12" d="M15.5 22.667c0 3.866-3.134 7-7 7s-7-3.134-7-7c0-3.866 3.134-7 7-7s7 3.134 7 7z"></path><path opacity="0.12" d="M25.833 18.333v3.14l2.667-1.567v-3.14z"></path><path opacity="0.12" d="M15.473 3.293l11.36 6.68 0.020 4.927-4 2.353-0.020-4.987-11.307-6.653z"></path><path d="M29.527 6.44l-8.667-5.1c-1.040-0.613-2.34-0.613-3.38 0l-8.667 5.1c-1.013 0.593-1.64 1.7-1.64 2.873v5.873c-3.567 0.627-6.28 3.74-6.28 7.48 0 4.193 3.413 7.607 7.607 7.607 2.907 0 5.433-1.64 6.713-4.040l2.26 1.333c0.52 0.307 1.107 0.46 1.693 0.46s1.167-0.153 1.693-0.46l8.667-5.1c1.013-0.593 1.64-1.7 1.64-2.873v-10.28c0-1.18-0.627-2.28-1.64-2.873zM18.153 2.487c0.627-0.367 1.4-0.367 2.027 0l8.667 5.1c0.107 0.060 0.2 0.147 0.293 0.227l-2.333 1.373-10.020-5.893 1.367-0.807zM12.84 5.613l2.627-1.547 10.693 6.293 0.013 3.78c0 0.233-0.127 0.46-0.327 0.58l-2.34 1.373-0.013-4.207-10.653-6.273zM11.527 6.387l10.020 5.893-2.38 1.4-9.973-5.867c0.093-0.080 0.18-0.167 0.293-0.227l2.040-1.2zM8.5 29.060c-3.527 0-6.393-2.867-6.393-6.393s2.867-6.393 6.393-6.393 6.393 2.867 6.393 6.393-2.867 6.393-6.393 6.393zM15.74 25c0.24-0.733 0.367-1.52 0.367-2.333 0-4.193-3.413-7.607-7.607-7.607v-5.747c0-0.113 0.027-0.22 0.047-0.333l9.953 5.853v11.727c-0.12-0.040-0.24-0.080-0.347-0.147l-2.413-1.413zM29.833 19.593c0 0.707-0.38 1.367-0.987 1.72l-8.667 5.1c-0.113 0.067-0.227 0.107-0.347 0.147v-11.727l2.34-1.373 0.007 2.633c0 0.487 0.253 0.913 0.673 1.153 0.207 0.12 0.433 0.18 0.66 0.18 0.233 0 0.467-0.060 0.673-0.187l2.34-1.373c0.613-0.36 0.987-1.020 0.987-1.733l-0.013-3.807 2.287-1.347c0.020 0.113 0.047 0.22 0.047 0.333v10.28z"></path><path d="M28.707 16.4c-0.213-0.12-0.48-0.12-0.693 0.007l-2.14 1.26c-0.373 0.22-0.6 0.62-0.6 1.053v2.52c0 0.247 0.133 0.473 0.347 0.6 0.107 0.060 0.227 0.093 0.34 0.093 0.12 0 0.24-0.033 0.353-0.093l2.14-1.26c0.373-0.22 0.6-0.62 0.6-1.053v-2.527c0-0.247-0.133-0.473-0.347-0.6zM27.947 19.527c0 0.040-0.020 0.073-0.053 0.093l-1.5 0.88v-1.787c0-0.040 0.020-0.073 0.053-0.093l1.5-0.88v1.787z"></path><path d="M8.833 21.447h-1.987l1.713-1.713-0.787-0.787-3.060 3.053 3.060 3.060 0.787-0.787-1.72-1.72h1.993c1.167 0 2.113 0.947 2.113 2.113v0.553h1.113v-0.553c-0.007-1.78-1.447-3.22-3.227-3.22z"></path></svg>