<svg xmlns="http://www.w3.org/2000/svg" width="32" height="32" viewBox="0 0 32 32"><title>satisfaction</title><path d="M25 27.93h-11.020c-2.2 0-3.98-1.83-3.98-4.090v-10.020c0-0.87 0.28-1.74 0.79-2.44l4.63-6.38c0.33-0.46 0.75-0.83 1.23-1.12 1.26-0.73 2.75-0.71 3.99 0.040 1.22 0.74 1.95 2.060 1.95 3.51v3.59h5.42c1.3 0 2.52 0.65 3.27 1.75 0.73 1.080 0.92 2.47 0.49 3.71l-3.020 8.73c-0.56 1.63-2.070 2.72-3.75 2.72zM18.61 5.35c-0.33 0-0.65 0.090-0.96 0.26-0.24 0.14-0.45 0.33-0.62 0.56l-4.63 6.38c-0.26 0.37-0.4 0.82-0.4 1.27v10.030c0 1.15 0.89 2.090 1.98 2.090h11.020c0.83 0 1.58-0.55 1.86-1.37l3.020-8.73c0.22-0.65 0.13-1.37-0.25-1.93-0.37-0.55-0.97-0.87-1.61-0.87h-5.63c-0.99 0-1.79-0.82-1.79-1.82v-3.77c0-0.75-0.37-1.43-0.99-1.81-0.32-0.19-0.66-0.29-1-0.29z"></path><path d="M4 28.64c-2.21 0-4-1.79-4-4v-12c0-2.21 1.79-4 4-4s4 1.79 4 4v12c0 2.21-1.79 4-4 4zM4 10.64c-1.1 0-2 0.9-2 2v12c0 1.1 0.9 2 2 2s2-0.9 2-2v-12c0-1.1-0.9-2-2-2z"></path><path d="M5 24.64c0 0.552-0.448 1-1 1s-1-0.448-1-1c0-0.552 0.448-1 1-1s1 0.448 1 1z"></path></svg>