<svg xmlns="http://www.w3.org/2000/svg" width="32" height="32" viewBox="0 0 32 32"><title>secure-payment</title><path opacity="0.12" d="M11.667 19.333c0 1.105-0.895 2-2 2s-2-0.895-2-2c0-1.105 0.895-2 2-2s2 0.895 2 2z"></path><path opacity="0.12" d="M21.333 30.667v0 0c-3.133-0.787-5.333-3.6-5.333-6.833v-3.833l5.333-2 5.333 2v3.833c0 3.233-2.2 6.047-5.333 6.833z"></path><path opacity="0.12" d="M1.333 8h29.333v4h-29.333v-4z"></path><path d="M6.333 21.887c0.62 0 1.2-0.233 1.667-0.633 0.447 0.387 1.027 0.633 1.667 0.633 1.407 0 2.553-1.147 2.553-2.553s-1.147-2.553-2.553-2.553c-0.64 0-1.22 0.247-1.667 0.633-0.98-0.84-2.553-0.807-3.473 0.113-0.48 0.48-0.747 1.127-0.747 1.807s0.267 1.327 0.747 1.807c0.48 0.48 1.127 0.747 1.807 0.747zM9.667 17.887c0.793 0 1.447 0.647 1.447 1.447s-0.647 1.447-1.447 1.447-1.447-0.647-1.447-1.447 0.653-1.447 1.447-1.447zM5.313 18.313c0.54-0.54 1.473-0.547 2.020-0.013-0.14 0.32-0.227 0.667-0.227 1.040s0.080 0.72 0.227 1.040c-0.547 0.527-1.487 0.527-2.020-0.013-0.273-0.287-0.427-0.647-0.427-1.033s0.153-0.747 0.427-1.020z"></path><path d="M28 2h-24c-1.84 0-3.333 1.493-3.333 3.333v16c0 1.84 1.493 3.333 3.333 3.333h11.38c0.34 3.187 2.627 5.853 5.787 6.647l0.167 0.040 0.16-0.040c3.167-0.793 5.447-3.46 5.787-6.647h0.72c1.84 0 3.333-1.493 3.333-3.333v-16c0-1.84-1.493-3.333-3.333-3.333zM2 8.667h28v2.667h-28v-2.667zM26 23.833c0 2.873-1.913 5.373-4.667 6.14-2.753-0.767-4.667-3.267-4.667-6.14v-3.373l4.667-1.747 4.667 1.747v3.373zM30 21.333c0 1.1-0.9 2-2 2h-0.667v-3.793l-6-2.253-6 2.253v3.793h-11.333c-1.1 0-2-0.9-2-2v-8.667h28v8.667zM2 7.333v-2c0-1.1 0.9-2 2-2h24c1.1 0 2 0.9 2 2v2h-28z"></path><path d="M19.040 23.953l-0.74 0.74 2.147 2.153 3.927-3.927-0.74-0.747-3.187 3.187z"></path></svg>