<svg xmlns="http://www.w3.org/2000/svg" width="32" height="32" viewBox="0 0 32 32"><title>shield-security</title><path d="M28 6.15c-0.060 0.001-0.131 0.001-0.202 0.001-4.61 0-8.782-1.874-11.797-4.901l-0.001-0.001c-3.015 3.028-7.188 4.901-11.798 4.901-0.071 0-0.142-0-0.213-0.001l0.011 0s-1.050 17.7 12 24.6c13.050-6.9 12-24.6 12-24.6zM23.2 12.1l-7.7 7.7-4.2-4.2c-0.125-0.165-0.2-0.374-0.2-0.6 0-0.552 0.448-1 1-1 0.226 0 0.435 0.075 0.602 0.202l-0.002-0.002 2.8 2.75 6.25-6.25c0.165-0.125 0.374-0.2 0.6-0.2 0.552 0 1 0.448 1 1 0 0.226-0.075 0.435-0.202 0.602l0.002-0.002z"></path></svg>