<svg xmlns="http://www.w3.org/2000/svg" width="32" height="32" viewBox="0 0 32 32"><title>start-selling</title><path d="M28.4 1.867c-0.253-0.333-0.647-0.533-1.067-0.533h-22.667c-0.42 0-0.813 0.2-1.067 0.533l-3.6 4.8v3.327c0 1.593 1.12 3.013 2.667 3.28v14.727c0 1.473 1.193 2.667 2.667 2.667h21.333c1.473 0 2.667-1.193 2.667-2.667v-14.727c1.547-0.267 2.667-1.687 2.667-3.28v-3.327l-3.6-4.8zM26.667 29.393h-21.333c-0.767 0-1.393-0.627-1.393-1.393v-14.753c1.413-0.333 2.46-1.6 2.46-3.113 0 1.767 1.433 3.2 3.2 3.2s3.2-1.433 3.2-3.2c0 1.767 1.433 3.2 3.2 3.2s3.2-1.433 3.2-3.2c0 1.767 1.433 3.2 3.2 3.2s3.2-1.433 3.2-3.2c0 1.513 1.053 2.78 2.46 3.113v14.753c0 0.767-0.627 1.393-1.393 1.393z"></path><path d="M20.773 17.167h2.807l-7.007 6.96-4.927-3.373-4.78 4.84 0.713 0.707 4.187-4.247 4.92 3.367 7.587-7.533v2.78h1v-4.5h-4.5z"></path></svg>