<svg xmlns="http://www.w3.org/2000/svg" width="32" height="32" viewBox="0 0 32 32"><title>Strive-for-excellence</title><path d="M31.93 11.36c0.040-0.1 0.060-0.2 0.060-0.31 0-0.020 0.010-0.030 0.010-0.050 0 0 0 0 0-0.010 0-0.12-0.030-0.25-0.070-0.37-0.020-0.040-0.050-0.080-0.070-0.12-0.030-0.060-0.060-0.12-0.1-0.17l-7-8c-0.010-0.010-0.020-0.010-0.030-0.020s-0.010-0.020-0.020-0.030c-0.050-0.050-0.12-0.080-0.19-0.12-0.040-0.030-0.080-0.060-0.13-0.080-0.12-0.050-0.26-0.080-0.39-0.080h-16c-0.13 0-0.27 0.030-0.39 0.090-0.050 0.020-0.090 0.050-0.13 0.080-0.060 0.040-0.13 0.070-0.19 0.12-0.010 0.010-0.010 0.020-0.020 0.030 0 0.010-0.020 0.010-0.020 0.020l-7 8c-0.050 0.050-0.070 0.11-0.1 0.17-0.020 0.040-0.050 0.070-0.070 0.12-0.050 0.12-0.080 0.24-0.080 0.36 0 0 0 0 0 0.010 0 0.020 0.010 0.030 0.010 0.050 0.010 0.1 0.020 0.21 0.060 0.31 0.020 0.050 0.050 0.090 0.080 0.13 0.030 0.050 0.050 0.1 0.080 0.15l15 18c0.010 0.010 0.020 0.020 0.030 0.030 0.070 0.070 0.15 0.13 0.23 0.18 0.030 0.020 0.060 0.050 0.1 0.070 0.13 0.050 0.26 0.080 0.41 0.080s0.28-0.030 0.41-0.090c0.040-0.020 0.060-0.040 0.1-0.070 0.080-0.050 0.16-0.11 0.23-0.18 0.010-0.010 0.020-0.010 0.030-0.030l15-18c0.040-0.050 0.060-0.1 0.080-0.15 0.030-0.030 0.060-0.070 0.080-0.12zM8.050 4.46l5.54 5.54h-10.39l4.85-5.54zM10.41 4h11.17l-5.58 5.59-5.59-5.59zM15 12v14.24l-11.86-14.24h11.86zM17 12h11.86l-11.86 14.24v-14.24zM18.41 10l5.54-5.54 4.85 5.54h-10.39z"></path></svg>