<svg xmlns="http://www.w3.org/2000/svg" width="32" height="32" viewBox="0 0 32 32"><title>Win-Together</title><path d="M27 8v-7c0-0.55-0.45-1-1-1h-20c-0.55 0-1 0.45-1 1v7c0 2.41 1.27 3.69 2.29 4.71l6.11 6.11-0.52 1.070-5.030 0.72c-0.38 0.050-0.69 0.32-0.81 0.68s-0.020 0.76 0.25 1.030l3.62 3.53-0.86 4.98c-0.060 0.38 0.090 0.75 0.4 0.98s0.72 0.25 1.050 0.080l4.5-2.36 4.49 2.36c0.15 0.080 0.31 0.11 0.46 0.11 0.21 0 0.41-0.060 0.59-0.19 0.31-0.22 0.46-0.6 0.4-0.98l-0.86-4.98 3.62-3.53c0.27-0.27 0.37-0.66 0.25-1.030-0.12-0.36-0.43-0.63-0.81-0.68l-5.030-0.72-0.48-0.97 6.070-6.21c1.030-1.020 2.3-2.3 2.3-4.71zM7 2h18v4h-18v-4zM21.85 22.3l-2.55 2.48c-0.24 0.23-0.34 0.56-0.29 0.89l0.6 3.5-3.15-1.66c-0.15-0.080-0.31-0.11-0.46-0.11s-0.32 0.040-0.46 0.11l-3.15 1.66 0.6-3.5c0.060-0.32-0.050-0.66-0.29-0.89l-2.55-2.48 3.54-0.51c0.33-0.050 0.61-0.25 0.76-0.55l1.55-3.17 1.55 3.17c0.15 0.3 0.43 0.5 0.76 0.55l3.54 0.51zM17.71 17.010l-0.81-1.65c-0.34-0.69-1.46-0.69-1.8 0l-0.77 1.56-5.63-5.63c-0.91-0.91-1.7-1.7-1.7-3.29h18c0 1.59-0.79 2.38-1.72 3.3l-5.57 5.71z"></path></svg>