<svg xmlns="http://www.w3.org/2000/svg" width="32" height="32" viewBox="0 0 32 32"><title>worldwide</title><path opacity="0.12" d="M28.2 21.027c-2.133-0.973-4.887-1.9-6.1-0.667-0.927 0.94-0.373 2.547-0.56 4.96-0.067 0.833-0.22 1.82-0.567 2.927 0 0 5.427-1.973 7.28-6.993z"></path><path opacity="0.12" d="M9.847 3.92c1.427 1.473 5.24 6.52 2.147 8.84-1.353 1.013-5.32 0.453-5.627 1.593-0.347 1.28 1.833 2.187 2.58 4.287 0.473 1.327-0.060 3.007-2.54 6.627 0 0-4.287-4.327-3.74-11.373s7.18-9.973 7.18-9.973z"></path><path opacity="0.12" d="M28.593 8l-1.34 0.92c-1.133 0.78-2.593 0.927-3.86 0.38l-3.327-1.44c-0.9-0.387-1.933-0.287-2.74 0.267v0l4.22 4.733-3.007 2.073c-0.56 0.387-1.253 0.507-1.907 0.333v0c-0.62-0.16-1.28-0.047-1.807 0.313v0l0.893 1.293 0.273 0.393c0.833 1.213 2.493 1.52 3.707 0.68l10.753-7.413c0.76-0.52 0.913-1.593 0.307-2.313-0.513-0.593-1.52-0.667-2.167-0.22z"></path><path d="M31.253 7.8c-0.707-0.833-2.093-0.987-3.033-0.34l-0.747 0.513c-2.627-3.747-6.86-5.973-11.473-5.973-7.72 0-14 6.28-14 14 0 2.273 0.553 4.413 1.52 6.313-3.567 5.34-2.433 6.5-2.053 6.887 0.313 0.313 0.747 0.453 1.26 0.453 1.333 0 3.247-0.953 5.207-2.227 2.287 1.613 5.067 2.573 8.067 2.573 7.72 0 14-6.28 14-14 0-1.347-0.2-2.673-0.58-3.953l1.4-0.967c0.52-0.36 0.86-0.92 0.947-1.54 0.087-0.627-0.107-1.26-0.513-1.74zM9.92 4.893c1.253 1.48 2.787 3.927 2.64 5.707-0.053 0.7-0.36 1.247-0.927 1.673-0.507 0.373-1.667 0.5-2.687 0.607-1.553 0.167-2.893 0.307-3.16 1.313-0.267 1 0.447 1.78 1.133 2.527 0.54 0.587 1.153 1.253 1.46 2.12 0.327 0.913 0.093 2.2-2 5.38-1.893-2.213-3.047-5.087-3.047-8.22 0-4.78 2.667-8.947 6.587-11.107zM2.413 28.253c-0.193-0.193-0.193-1.453 1.853-4.647 0.713 1.093 1.573 2.080 2.553 2.94-2.573 1.613-4.087 2.027-4.407 1.707zM21.94 27.18c0.127-0.6 0.22-1.207 0.267-1.807 0.067-0.867 0.047-1.62 0.020-2.287-0.040-1.213-0.040-1.867 0.347-2.26 0.393-0.4 1.553-0.827 4.853 0.593-1.167 2.453-3.093 4.48-5.487 5.76zM28.667 16c0 1.473-0.267 2.88-0.727 4.193-3.113-1.333-5.187-1.44-6.313-0.3-0.807 0.82-0.773 1.94-0.733 3.233 0.020 0.633 0.040 1.347-0.020 2.14-0.067 0.88-0.233 1.733-0.487 2.6-1.367 0.507-2.84 0.8-4.387 0.8-2.533 0-4.893-0.753-6.88-2.047 2.053-1.447 4.047-3.107 5.407-4.287l0.007 2.267h1.333l-0.013-4.673-4.667 0.013v1.333l2.533-0.007c-2.227 1.953-4.153 3.44-5.753 4.527-0.26-0.213-0.5-0.44-0.74-0.667 2.24-3.353 2.84-5.133 2.287-6.693-0.393-1.1-1.127-1.893-1.713-2.527-0.593-0.64-0.947-1.053-0.867-1.373 0.18-0.24 1.4-0.367 2.133-0.447 1.233-0.133 2.513-0.267 3.287-0.84 0.853-0.633 1.327-1.493 1.407-2.54 0.173-2.18-1.433-4.76-2.727-6.347 1.527-0.667 3.207-1.027 4.967-1.027 4.147 0 7.96 1.987 10.34 5.347-0.847 0.38-1.813 0.393-2.68 0.020l-3.333-1.44c-1.113-0.48-2.373-0.36-3.373 0.327l-0.613 0.42 4.22 4.733-2.393 1.653c-0.4 0.273-0.9 0.36-1.367 0.24-0.807-0.213-1.66-0.060-2.34 0.407l-0.54 0.373 1.533 2.227c0.507 0.733 1.26 1.22 2.133 1.38 0.2 0.040 0.407 0.053 0.607 0.053 0.667 0 1.32-0.2 1.88-0.587l8.193-5.647c0.26 1.033 0.4 2.087 0.4 3.16zM30.467 9.367c-0.033 0.26-0.173 0.487-0.387 0.633l-10.753 7.413c-0.44 0.307-0.98 0.42-1.507 0.32s-0.987-0.393-1.293-0.84l-0.707-1.027c0.213-0.033 0.433-0.027 0.64 0.033 0.84 0.22 1.733 0.067 2.447-0.427l3.62-2.493-4.127-4.633c0.46-0.12 0.953-0.080 1.407 0.113l3.333 1.44c1.48 0.64 3.16 0.48 4.493-0.44l1.34-0.92c0.387-0.267 1.013-0.22 1.293 0.107 0.16 0.207 0.233 0.46 0.2 0.72z"></path></svg>