<svg width="600" height="600" viewBox="0 0 600 600" fill="none" xmlns="http://www.w3.org/2000/svg">
<path d="M588.001 164.518C582.853 164.518 578.711 160.376 578.711 155.228V86.7114C578.711 79.0082 572.479 72.776 564.775 72.776H35.2271C27.5238 72.776 21.2916 79.0082 21.2916 86.7114V155.228C21.2916 160.376 17.1496 164.518 12.0013 164.518C6.85287 164.518 2.71094 160.376 2.71094 155.228V86.7114C2.71094 68.7889 17.3045 54.1953 35.2271 54.1953H564.775C582.698 54.1953 597.292 68.7889 597.292 86.7114V155.228C597.292 160.376 593.15 164.518 588.001 164.518Z" fill="black"/>
<path d="M564.775 545.809H35.2271C17.3045 545.809 2.71094 531.215 2.71094 513.292V155.228C2.71094 150.08 6.85287 145.938 12.0013 145.938H588.001C593.15 145.938 597.292 150.08 597.292 155.228V513.292C597.292 531.215 582.698 545.809 564.775 545.809ZM21.2916 164.518V513.292C21.2916 520.996 27.5238 527.228 35.2271 527.228H564.775C572.479 527.228 578.711 520.996 578.711 513.292V164.518H21.2916ZM84.3884 122.905C76.9174 122.905 70.84 116.828 70.84 109.357C70.84 101.886 76.9174 95.8086 84.3884 95.8086C91.8593 95.8086 97.9367 101.886 97.9367 109.357C97.9367 116.828 91.8593 122.905 84.3884 122.905ZM137.808 122.905C130.337 122.905 124.259 116.828 124.259 109.357C124.259 101.886 130.337 95.8086 137.808 95.8086C145.279 95.8086 151.356 101.886 151.356 109.357C151.356 116.828 145.279 122.905 137.808 122.905ZM191.227 122.905C183.756 122.905 177.679 116.828 177.679 109.357C177.679 101.886 183.756 95.8086 191.227 95.8086C198.698 95.8086 204.775 101.886 204.775 109.357C204.775 116.828 198.698 122.905 191.227 122.905Z" fill="black"/>
<path d="M175.199 436.918C170.051 436.918 165.909 432.777 165.909 427.628V390.66H91.0059C87.5221 390.66 84.3479 388.725 82.7221 385.628C81.135 382.531 81.4059 378.815 83.4576 375.951L167.651 258.699C170.012 255.409 174.193 254.054 178.025 255.293C181.858 256.531 184.451 260.093 184.451 264.118V372.08H204.503C209.651 372.08 213.793 376.222 213.793 381.37C213.793 386.518 209.651 390.66 204.503 390.66H184.451V427.628C184.49 432.777 180.348 436.918 175.199 436.918ZM109.122 372.08H165.909V292.996L109.122 372.08ZM479.651 436.918C474.503 436.918 470.361 432.777 470.361 427.628V390.66H395.458C391.974 390.66 388.8 388.725 387.174 385.628C385.587 382.531 385.858 378.815 387.909 375.951L472.103 258.699C474.464 255.409 478.645 254.054 482.477 255.293C486.309 256.531 488.903 260.093 488.903 264.118V372.08H508.954C514.103 372.08 518.245 376.222 518.245 381.37C518.245 386.518 514.103 390.66 508.954 390.66H488.903V427.628C488.941 432.777 484.761 436.918 479.651 436.918ZM413.574 372.08H470.361V292.996L413.574 372.08ZM300 436.918C269.225 436.918 244.219 411.912 244.219 381.138V310.609C244.219 279.835 269.225 254.828 300 254.828C330.774 254.828 355.78 279.835 355.78 310.609V381.138C355.78 411.912 330.774 436.918 300 436.918ZM300 273.409C279.483 273.409 262.8 290.093 262.8 310.609V381.138C262.8 401.654 279.483 418.338 300 418.338C320.516 418.338 337.199 401.654 337.199 381.138V310.609C337.199 290.093 320.516 273.409 300 273.409Z" fill="black"/>
</svg>
