<svg xmlns="http://www.w3.org/2000/svg" style="height:auto" width="168px" height="32px" viewBox="0 0 168 32"><path fill="#1d2128" style="fill: var(--color1, #1d2128)" d="M27.27 28.040h-4.96v-16.060l-8.19 14.21-8.13-14.25v16.090h-4.99v-24h5.38l7.74 13.28 7.81-13.28h5.34v24.010z"></path><path fill="#1d2128" style="fill: var(--color1, #1d2128)" d="M32.2 24.23c-0.79-1.28-1.18-2.68-1.18-4.19s0.39-2.91 1.18-4.19c0.79-1.28 1.86-2.29 3.2-3.020 1.34-0.74 2.83-1.1 4.45-1.1s3.11 0.37 4.46 1.1c1.35 0.74 2.42 1.74 3.2 3.020s1.17 2.68 1.17 4.19-0.39 2.91-1.17 4.19c-0.78 1.28-1.85 2.29-3.2 3.020-1.35 0.74-2.84 1.1-4.46 1.1s-3.1-0.37-4.45-1.1c-1.34-0.73-2.41-1.74-3.2-3.020zM43.88 20.040c0-0.72-0.18-1.4-0.54-2.020s-0.85-1.11-1.47-1.47c-0.62-0.36-1.29-0.54-2.020-0.54-1.11 0-2.050 0.39-2.83 1.17s-1.17 1.73-1.17 2.86c0 1.11 0.39 2.050 1.17 2.83s1.72 1.17 2.83 1.17c1.11 0 2.060-0.39 2.85-1.17 0.78-0.78 1.18-1.72 1.18-2.83z"></path><path fill="#1d2128" style="fill: var(--color1, #1d2128)" d="M58.41 15.78v12.25h-4.83v-12.25h-3.010v-3.74h3.010v-5.76h4.83v5.76h3.010v3.74h-3.010z"></path><path fill="#1d2128" style="fill: var(--color1, #1d2128)" d="M70.41 15.78v12.25h-4.83v-12.25h-3.010v-3.74h3.010v-5.76h4.83v5.76h3.010v3.74h-3.010z"></path><path fill="#1d2128" style="fill: var(--color1, #1d2128)" d="M92.1 28.040h-4.8v-1.63c-1.17 1.3-2.77 1.95-4.8 1.95-1.43 0-2.74-0.37-3.94-1.1-1.2-0.74-2.14-1.74-2.85-3.020-0.7-1.28-1.060-2.68-1.060-4.19s0.35-2.91 1.060-4.19c0.7-1.28 1.65-2.29 2.85-3.020 1.19-0.74 2.51-1.1 3.94-1.1 2.030 0 3.63 0.65 4.8 1.95v-1.63h4.8v15.98zM87.53 20.040c0-1.13-0.39-2.080-1.17-2.86s-1.73-1.17-2.86-1.17c-1.11 0-2.050 0.39-2.83 1.17s-1.17 1.73-1.17 2.86c0 1.11 0.39 2.050 1.17 2.83s1.72 1.17 2.83 1.17c1.13 0 2.090-0.39 2.86-1.17 0.78-0.78 1.17-1.72 1.17-2.83z"></path><path fill="#33a9c8" style="fill: var(--color2, #33a9c8)" d="M105.8 20.62v0c-4.14 0-7.5 3.36-7.5 7.5v0h7.5v-7.5z"></path><path fill="#001bbc" style="fill: var(--color3, #001bbc)" opacity="0.8" d="M102.050 11.42v0c-2.070 0-3.75 1.68-3.75 3.75v0c0 2.070 1.68 3.75 3.75 3.75v0c2.070 0 3.75-1.68 3.75-3.75v0c0-2.070-1.68-3.75-3.75-3.75z"></path><path fill="#ff2217" style="fill: var(--color4, #ff2217)" opacity="0.75" d="M107.5 20.62h7.5v7.5h-7.5v-7.5z"></path><path fill="#f7931e" style="fill: var(--color5, #f7931e)" d="M115 11.42h-7.5v7.5z"></path><path fill="#7c818b" style="fill: var(--color6, #7c818b)" d="M125.070 10.88h2.31c0.66 0 1.18 0.18 1.57 0.53 0.38 0.35 0.57 0.82 0.57 1.39 0 0.37-0.1 0.68-0.29 0.95s-0.45 0.46-0.77 0.58c0.39 0.1 0.71 0.31 0.93 0.62 0.23 0.32 0.35 0.68 0.35 1.080 0 0.56-0.2 1.020-0.61 1.39s-0.93 0.54-1.58 0.54h-2.48v-7.080zM126.050 13.98h1.22c0.39 0 0.69-0.1 0.92-0.31s0.34-0.48 0.34-0.81c0-0.34-0.12-0.61-0.35-0.81s-0.55-0.3-0.95-0.3h-1.18v2.23zM126.050 17.12h1.36c0.4 0 0.72-0.1 0.96-0.31s0.37-0.48 0.37-0.82c0-0.35-0.11-0.63-0.33-0.84s-0.54-0.31-0.96-0.31h-1.4v2.28z"></path><path fill="#7c818b" style="fill: var(--color6, #7c818b)" d="M134.42 16.32l0.81 0.28c-0.14 0.45-0.4 0.81-0.78 1.1s-0.84 0.42-1.38 0.42c-0.67 0-1.25-0.23-1.71-0.7-0.47-0.46-0.71-1.090-0.71-1.88 0-0.73 0.23-1.34 0.68-1.82s0.99-0.72 1.62-0.72c0.73 0 1.29 0.23 1.7 0.69s0.61 1.070 0.61 1.83c0 0.12-0.010 0.22-0.020 0.3h-3.62c0.010 0.43 0.15 0.78 0.42 1.050 0.28 0.27 0.62 0.41 1.030 0.41 0.69 0.010 1.14-0.31 1.35-0.96zM131.65 15.070h2.63c-0.010-0.36-0.13-0.66-0.36-0.89s-0.55-0.34-0.96-0.34c-0.37 0-0.68 0.12-0.92 0.36-0.24 0.25-0.37 0.54-0.39 0.87z"></path><path fill="#7c818b" style="fill: var(--color6, #7c818b)" d="M136.010 16.72l0.85-0.3c0.030 0.26 0.15 0.47 0.34 0.65 0.19 0.17 0.45 0.25 0.78 0.25 0.25 0 0.45-0.060 0.6-0.19 0.15-0.12 0.22-0.27 0.22-0.46 0-0.32-0.21-0.53-0.62-0.62l-0.82-0.18c-0.37-0.080-0.67-0.24-0.88-0.48s-0.32-0.53-0.32-0.87c0-0.41 0.17-0.77 0.5-1.070 0.34-0.3 0.74-0.45 1.21-0.45 0.31 0 0.58 0.040 0.82 0.13s0.43 0.21 0.56 0.35c0.13 0.15 0.23 0.28 0.3 0.41s0.12 0.26 0.15 0.39l-0.83 0.31c-0.010-0.080-0.040-0.16-0.070-0.24s-0.080-0.16-0.15-0.25c-0.070-0.090-0.17-0.17-0.31-0.23-0.13-0.060-0.29-0.080-0.47-0.080-0.23 0-0.42 0.060-0.58 0.19-0.15 0.13-0.22 0.28-0.22 0.45 0 0.31 0.18 0.5 0.55 0.58l0.78 0.17c0.43 0.090 0.75 0.27 0.98 0.52s0.35 0.55 0.35 0.92c0 0.38-0.16 0.72-0.46 1.030-0.31 0.31-0.74 0.46-1.3 0.46-0.59 0-1.060-0.15-1.39-0.45s-0.52-0.6-0.57-0.94z"></path><path fill="#7c818b" style="fill: var(--color6, #7c818b)" d="M142.24 11.64v1.52h1.040v0.85h-1.040v2.5c0 0.23 0.050 0.39 0.16 0.5s0.28 0.16 0.52 0.16c0.14 0 0.26-0.010 0.37-0.040v0.8c-0.16 0.060-0.37 0.090-0.64 0.090-0.41 0-0.74-0.12-0.98-0.36s-0.36-0.58-0.36-1.010v-2.64h-0.92v-0.85h0.26c0.25 0 0.43-0.070 0.55-0.21s0.19-0.31 0.19-0.53v-0.78h0.85z"></path><path fill="#7c818b" style="fill: var(--color6, #7c818b)" d="M148.11 17.97h-0.98v-7.090h4.31v0.91h-3.33v2.28h3.020v0.92h-3.020v2.98z"></path><path fill="#7c818b" style="fill: var(--color6, #7c818b)" d="M152.48 13.74c0.46-0.48 1.050-0.73 1.77-0.73 0.71 0 1.3 0.24 1.76 0.73 0.46 0.48 0.7 1.090 0.7 1.82 0 0.74-0.23 1.35-0.69 1.83s-1.050 0.73-1.77 0.73c-0.72 0-1.31-0.24-1.77-0.73-0.46-0.48-0.69-1.090-0.69-1.83 0-0.73 0.23-1.34 0.69-1.82zM153.18 16.83c0.29 0.3 0.65 0.46 1.070 0.46s0.77-0.15 1.060-0.46 0.44-0.73 0.44-1.27c0-0.53-0.15-0.95-0.44-1.25s-0.64-0.46-1.060-0.46-0.78 0.15-1.070 0.46c-0.29 0.3-0.43 0.72-0.43 1.25 0 0.54 0.14 0.97 0.43 1.27z"></path><path fill="#7c818b" style="fill: var(--color6, #7c818b)" d="M160.58 13.11v1c-0.14-0.020-0.28-0.030-0.41-0.030-0.88 0-1.32 0.49-1.32 1.48v2.41h-0.94v-4.81h0.92v0.84c0.29-0.61 0.77-0.92 1.44-0.92 0.11 0 0.21 0.010 0.31 0.030z"></path><path fill="#7c818b" style="fill: var(--color6, #7c818b)" d="M129.59 22.5l-0.88 0.31c-0.050-0.31-0.2-0.58-0.45-0.83s-0.6-0.38-1.050-0.38c-0.39 0-0.72 0.11-0.98 0.34s-0.39 0.51-0.39 0.84c0 0.26 0.080 0.48 0.24 0.66s0.38 0.3 0.67 0.37l1.060 0.23c0.59 0.13 1.040 0.36 1.36 0.71s0.48 0.77 0.48 1.27c0 0.57-0.23 1.070-0.68 1.48s-1.040 0.62-1.77 0.62c-0.79 0-1.42-0.21-1.87-0.62-0.45-0.42-0.71-0.91-0.79-1.49l0.94-0.3c0.040 0.43 0.21 0.79 0.5 1.080s0.69 0.44 1.2 0.44c0.47 0 0.83-0.11 1.080-0.32s0.38-0.48 0.38-0.81c0-0.27-0.090-0.5-0.27-0.69-0.18-0.2-0.44-0.33-0.79-0.41l-1.010-0.22c-0.53-0.11-0.95-0.34-1.26-0.67s-0.47-0.76-0.47-1.27c0-0.56 0.23-1.050 0.69-1.47s1.010-0.64 1.65-0.64c0.73 0 1.28 0.18 1.67 0.53 0.4 0.36 0.64 0.77 0.74 1.24z"></path><path fill="#7c818b" style="fill: var(--color6, #7c818b)" d="M131.79 25.14v2.83h-0.94v-7.24h0.94v2.99c0.32-0.47 0.81-0.7 1.46-0.7 0.55 0 0.98 0.18 1.27 0.53 0.3 0.35 0.45 0.81 0.45 1.37v3.050h-0.94v-2.89c0-0.81-0.37-1.21-1.12-1.21-0.35 0-0.62 0.12-0.81 0.35-0.19 0.25-0.3 0.55-0.31 0.92z"></path><path fill="#7c818b" style="fill: var(--color6, #7c818b)" d="M136.76 23.74c0.46-0.48 1.050-0.73 1.77-0.73 0.71 0 1.3 0.24 1.76 0.73 0.46 0.48 0.7 1.090 0.7 1.82 0 0.74-0.23 1.35-0.69 1.83s-1.050 0.73-1.77 0.73c-0.72 0-1.31-0.24-1.77-0.73s-0.69-1.090-0.69-1.83c0-0.73 0.23-1.34 0.69-1.82zM137.46 26.83c0.29 0.3 0.65 0.45 1.070 0.45s0.77-0.15 1.060-0.45c0.29-0.3 0.44-0.73 0.44-1.27 0-0.53-0.15-0.95-0.44-1.25s-0.64-0.46-1.060-0.46-0.78 0.15-1.070 0.46c-0.29 0.3-0.43 0.72-0.43 1.25 0 0.54 0.14 0.97 0.43 1.27z"></path><path fill="#7c818b" style="fill: var(--color6, #7c818b)" d="M143.12 29.88h-0.93v-6.71h0.91v0.75c0.14-0.25 0.35-0.46 0.63-0.62s0.61-0.24 0.98-0.24c0.69 0 1.23 0.24 1.62 0.71s0.58 1.070 0.58 1.8c0 0.73-0.2 1.34-0.61 1.82-0.4 0.48-0.95 0.72-1.63 0.72-0.35 0-0.67-0.070-0.94-0.22s-0.48-0.33-0.62-0.56v2.55zM145.96 25.56c0-0.49-0.13-0.89-0.39-1.21s-0.6-0.47-1.030-0.47c-0.43 0-0.77 0.16-1.040 0.47-0.26 0.32-0.4 0.72-0.4 1.21 0 0.5 0.13 0.91 0.4 1.22 0.26 0.32 0.61 0.48 1.040 0.48s0.77-0.16 1.030-0.48c0.26-0.31 0.39-0.72 0.39-1.22z"></path><path fill="#7c818b" style="fill: var(--color6, #7c818b)" d="M149.050 29.88h-0.93v-6.71h0.91v0.75c0.14-0.25 0.35-0.46 0.63-0.62s0.61-0.24 0.98-0.24c0.69 0 1.23 0.24 1.62 0.71s0.58 1.070 0.58 1.8c0 0.73-0.2 1.34-0.61 1.82-0.4 0.48-0.95 0.72-1.63 0.72-0.35 0-0.67-0.070-0.94-0.22s-0.48-0.33-0.62-0.56v2.55zM151.89 25.56c0-0.49-0.13-0.89-0.39-1.21s-0.6-0.47-1.030-0.47c-0.43 0-0.77 0.16-1.040 0.47-0.26 0.32-0.4 0.72-0.4 1.21 0 0.5 0.13 0.91 0.4 1.22 0.26 0.32 0.61 0.48 1.040 0.48s0.77-0.16 1.030-0.48c0.26-0.31 0.39-0.72 0.39-1.22z"></path><path fill="#7c818b" style="fill: var(--color6, #7c818b)" d="M154.030 21.82c-0.13-0.13-0.2-0.29-0.2-0.48s0.070-0.35 0.2-0.48c0.13-0.13 0.29-0.2 0.47-0.2s0.35 0.060 0.48 0.19c0.13 0.13 0.2 0.29 0.2 0.49 0 0.19-0.070 0.34-0.2 0.48-0.13 0.13-0.29 0.19-0.48 0.19s-0.34-0.060-0.47-0.19zM154.98 27.97h-0.93v-4.81h0.93v4.81z"></path><path fill="#7c818b" style="fill: var(--color6, #7c818b)" d="M157.52 25.2v2.78h-0.94v-4.81h0.92v0.69c0.32-0.55 0.81-0.83 1.48-0.83 0.55 0 0.98 0.18 1.27 0.53 0.3 0.35 0.45 0.81 0.45 1.37v3.050h-0.94v-2.89c0-0.81-0.37-1.21-1.12-1.21-0.35 0-0.63 0.12-0.83 0.38-0.19 0.24-0.29 0.55-0.29 0.94z"></path><path fill="#7c818b" style="fill: var(--color6, #7c818b)" d="M161.85 28.23l0.91-0.21c0.030 0.34 0.17 0.62 0.41 0.84s0.54 0.34 0.9 0.34c0.98 0 1.47-0.52 1.47-1.56v-0.69c-0.12 0.23-0.31 0.42-0.56 0.57s-0.56 0.22-0.91 0.22c-0.64 0-1.17-0.22-1.58-0.65-0.42-0.44-0.62-1-0.62-1.67 0-0.66 0.21-1.21 0.62-1.67s0.94-0.67 1.59-0.67c0.73 0 1.23 0.25 1.48 0.76v-0.67h0.93v4.45c0 0.32-0.040 0.62-0.12 0.9s-0.21 0.53-0.4 0.76c-0.18 0.23-0.43 0.42-0.75 0.55s-0.7 0.2-1.13 0.2c-0.59 0-1.1-0.17-1.51-0.5-0.43-0.35-0.67-0.78-0.73-1.3zM164.21 26.96c0.41 0 0.74-0.14 0.99-0.43 0.25-0.28 0.38-0.65 0.38-1.11s-0.13-0.83-0.38-1.12c-0.25-0.28-0.58-0.42-0.99-0.42s-0.75 0.14-1 0.42-0.38 0.65-0.38 1.12c0 0.47 0.12 0.85 0.38 1.12 0.23 0.28 0.57 0.42 1 0.42z"></path></svg>